<svg width="32" height="32" viewBox="0 0 32 32" fill="none" xmlns="http://www.w3.org/2000/svg">
<path fill-rule="evenodd" clip-rule="evenodd" d="M11 8C7.96243 8 5.5 10.4624 5.5 13.5C5.5 16.5376 7.96243 19 11 19C14.0376 19 16.5 16.5376 16.5 13.5C16.5 10.4624 14.0376 8 11 8ZM3.5 13.5C3.5 9.35786 6.85786 6 11 6C15.1421 6 18.5 9.35786 18.5 13.5C18.5 17.6421 15.1421 21 11 21C6.85786 21 3.5 17.6421 3.5 13.5Z" fill="white"/>
<path fill-rule="evenodd" clip-rule="evenodd" d="M11 21C9.39525 21 7.81415 21.3857 6.39009 22.1255C4.96604 22.8653 3.74093 23.9369 2.81827 25.2499C2.50072 25.7018 1.87699 25.8107 1.42512 25.4931C0.973255 25.1756 0.864361 24.5519 1.1819 24.1C2.2891 22.5244 3.75923 21.2385 5.46809 20.3507C7.17696 19.463 9.0743 19 11 19C12.9257 19 14.8232 19.463 16.5321 20.3507C18.2409 21.2385 19.7111 22.5244 20.8183 24.1C21.1358 24.5519 21.0269 25.1756 20.575 25.4931C20.1232 25.8107 19.4994 25.7018 19.1819 25.2499C18.2592 23.9369 17.0341 22.8653 15.6101 22.1255C14.186 21.3857 12.6048 21 11 21Z" fill="white"/>
<path fill-rule="evenodd" clip-rule="evenodd" d="M24 12.2C22.8954 12.2 22 13.0596 22 14.12C22 15.1804 22.8954 16.04 24 16.04C25.1045 16.04 25.9999 15.1804 25.9999 14.12C25.9999 13.0596 25.1045 12.2 24 12.2ZM21 14.12C21 12.5294 22.3431 11.24 24 11.24C25.6568 11.24 26.9999 12.5294 26.9999 14.12C26.9999 15.7106 25.6568 17 24 17C22.3431 17 21 15.7106 21 14.12Z" fill="white"/>
<path fill-rule="evenodd" clip-rule="evenodd" d="M26.2015 5.0949C26.3283 5.00433 26.4922 4.97665 26.6436 5.02025L31.6435 6.46025C31.908 6.53642 32.0581 6.80401 31.9788 7.05793C31.8994 7.31185 31.6207 7.45594 31.3562 7.37976L26.9999 6.12514V14.12C26.9999 14.3851 26.7761 14.6 26.4999 14.6C26.2238 14.6 25.9999 14.3851 25.9999 14.12V5.48C25.9999 5.32827 26.0747 5.18548 26.2015 5.0949Z" fill="white"/>
</svg>
