<svg width="32" height="32" viewBox="0 0 32 32" fill="none" xmlns="http://www.w3.org/2000/svg">
<path fill-rule="evenodd" clip-rule="evenodd" d="M4 6C4 4.89543 4.89543 4 6 4H26C27.1046 4 28 4.89543 28 6V26C28 27.1046 27.1046 28 26 28H6C4.89543 28 4 27.1046 4 26V6ZM26 6H6V26H26V6Z" fill="#FFD48E"/>
<path fill-rule="evenodd" clip-rule="evenodd" d="M9.18519 16.913C9.18519 16.5769 9.4505 16.3043 9.77778 16.3043H13.9259C14.2532 16.3043 14.5185 16.5769 14.5185 16.913C14.5185 17.2492 14.2532 17.5217 13.9259 17.5217H10.3704V22.3913C10.3704 22.7275 10.1051 23 9.77778 23C9.4505 23 9.18519 22.7275 9.18519 22.3913V16.913Z" fill="#FFD48E"/>
<path fill-rule="evenodd" clip-rule="evenodd" d="M8 22.3913C8 22.0551 8.26531 21.7826 8.59259 21.7826H23.4074C23.7347 21.7826 24 22.0551 24 22.3913C24 22.7275 23.7347 23 23.4074 23H8.59259C8.26531 23 8 22.7275 8 22.3913Z" fill="#FFD48E"/>
<path fill-rule="evenodd" clip-rule="evenodd" d="M13.3333 13.2609C13.3333 12.9247 13.5986 12.6522 13.9259 12.6522H18.0741C18.4014 12.6522 18.6667 12.9247 18.6667 13.2609C18.6667 13.597 18.4014 13.8696 18.0741 13.8696H14.5185V22.3913C14.5185 22.7275 14.2532 23 13.9259 23C13.5986 23 13.3333 22.7275 13.3333 22.3913V13.2609Z" fill="#FFD48E"/>
<path fill-rule="evenodd" clip-rule="evenodd" d="M17.4815 9.6087C17.4815 9.27252 17.7468 9 18.0741 9H22.2222C22.5495 9 22.8148 9.27252 22.8148 9.6087V22.3913C22.8148 22.7275 22.5495 23 22.2222 23H18.0741C17.7468 23 17.4815 22.7275 17.4815 22.3913V9.6087ZM18.6667 10.2174V21.7826H21.6296V10.2174H18.6667Z" fill="#FFD48E"/>
</svg>
