<svg width="32" height="32" viewBox="0 0 32 32" fill="none" xmlns="http://www.w3.org/2000/svg">
<path fill-rule="evenodd" clip-rule="evenodd" d="M15 16C15 15.4477 15.4477 15 16 15H27C27.5523 15 28 15.4477 28 16C28 16.5523 27.5523 17 27 17H16C15.4477 17 15 16.5523 15 16Z" fill="#FFA47C"/>
<path fill-rule="evenodd" clip-rule="evenodd" d="M15 8C15 7.44772 15.4477 7 16 7H27C27.5523 7 28 7.44772 28 8C28 8.55228 27.5523 9 27 9H16C15.4477 9 15 8.55228 15 8Z" fill="#FFA47C" fill-opacity="0.7"/>
<path fill-rule="evenodd" clip-rule="evenodd" d="M15 24C15 23.4477 15.4477 23 16 23H27C27.5523 23 28 23.4477 28 24C28 24.5523 27.5523 25 27 25H16C15.4477 25 15 24.5523 15 24Z" fill="#FFA47C" fill-opacity="0.7"/>
<path fill-rule="evenodd" clip-rule="evenodd" d="M12.2351 13.3221C12.6095 13.7281 12.5839 14.3607 12.1779 14.7351L7.84043 18.7351C7.45707 19.0887 6.86638 19.0882 6.48352 18.7342L4.32102 16.7342C3.91556 16.3592 3.89086 15.7265 4.26585 15.321C4.64085 14.9156 5.27353 14.8909 5.67899 15.2659L7.16348 16.6388L10.8221 13.2649C11.2281 12.8905 11.8607 12.9161 12.2351 13.3221Z" fill="#FFA47C"/>
<path d="M7.5 9.5C8.32843 9.5 9 8.82843 9 8C9 7.17157 8.32843 6.5 7.5 6.5C6.67157 6.5 6 7.17157 6 8C6 8.82843 6.67157 9.5 7.5 9.5Z" fill="#FFA47C" fill-opacity="0.7"/>
<path d="M7.5 25.5C8.32843 25.5 9 24.8284 9 24C9 23.1716 8.32843 22.5 7.5 22.5C6.67157 22.5 6 23.1716 6 24C6 24.8284 6.67157 25.5 7.5 25.5Z" fill="#FFA47C" fill-opacity="0.7"/>
</svg>
