<svg width="32" height="32" viewBox="0 0 32 32" fill="none" xmlns="http://www.w3.org/2000/svg">
<path fill-rule="evenodd" clip-rule="evenodd" d="M16 11C13.7909 11 12 12.7909 12 15C12 17.2091 13.7909 19 16 19C18.2091 19 20 17.2091 20 15C20 12.7909 18.2091 11 16 11ZM10 15C10 11.6863 12.6863 9 16 9C19.3137 9 22 11.6863 22 15C22 18.3137 19.3137 21 16 21C12.6863 21 10 18.3137 10 15Z" fill="#FF7369"/>
<path fill-rule="evenodd" clip-rule="evenodd" d="M4 6C4 4.89543 4.89543 4 6 4H26C27.1046 4 28 4.89543 28 6V26C28 27.1046 27.1046 28 26 28H6C4.89543 28 4 27.1046 4 26V6ZM26 6H6V26H26V6Z" fill="#FF7369"/>
<path fill-rule="evenodd" clip-rule="evenodd" d="M16 21C14.1872 21 12.428 21.6154 11.0109 22.7459C9.59379 23.8764 8.60264 25.4547 8.19983 27.2221C8.07711 27.7606 7.5411 28.0976 7.00262 27.9749C6.46415 27.8522 6.12711 27.3162 6.24983 26.7777C6.75334 24.5684 7.99228 22.5956 9.76366 21.1825C11.535 19.7693 13.734 19 16 19C18.266 19 20.4646 19.7693 22.236 21.1825C24.0074 22.5956 25.2463 24.5684 25.7498 26.7777C25.8725 27.3162 25.5355 27.8522 24.997 27.9749C24.4586 28.0976 23.9225 27.7606 23.7998 27.2221C23.397 25.4547 22.4059 23.8764 20.9888 22.7459C19.5717 21.6154 17.8128 21 16 21Z" fill="#FF7369"/>
</svg>
