<svg width="32" height="32" viewBox="0 0 32 32" fill="none" xmlns="http://www.w3.org/2000/svg">
<path fill-rule="evenodd" clip-rule="evenodd" d="M16.125 5C12.259 5 9.125 8.13401 9.125 12C9.125 15.866 12.259 19 16.125 19C19.991 19 23.125 15.866 23.125 12C23.125 8.13401 19.991 5 16.125 5ZM7.125 12C7.125 7.02944 11.1544 3 16.125 3C21.0956 3 25.125 7.02944 25.125 12C25.125 16.9706 21.0956 21 16.125 21C11.1544 21 7.125 16.9706 7.125 12Z" fill="#FF7369"/>
<path fill-rule="evenodd" clip-rule="evenodd" d="M16.1252 20.9988C13.843 20.9988 11.601 21.5996 9.62465 22.7407C7.64828 23.8819 6.00715 25.5233 4.86624 27.4998C4.59014 27.9781 3.97856 28.1421 3.50025 27.866C3.02193 27.5899 2.858 26.9783 3.1341 26.5C4.45053 24.2194 6.34414 22.3255 8.62457 21.0087C10.905 19.692 13.4919 18.9988 16.1252 18.9988C18.7585 18.9988 21.3453 19.692 23.6258 21.0087C25.9062 22.3255 27.7998 24.2194 29.1162 26.5C29.3923 26.9783 29.2284 27.5899 28.7501 27.866C28.2718 28.1421 27.6602 27.9781 27.3841 27.4998C26.2432 25.5233 24.6021 23.8819 22.6257 22.7407C20.6493 21.5996 18.4073 20.9988 16.1252 20.9988Z" fill="#FF7369"/>
</svg>
