<svg width="32" height="32" viewBox="0 0 32 32" fill="none" xmlns="http://www.w3.org/2000/svg">
<path fill-rule="evenodd" clip-rule="evenodd" d="M26 23C26.5523 23 27 22.5523 27 22V8C27 7.44772 26.5523 7 26 7H6C5.44772 7 5 7.44772 5 8V22C5 22.5523 5.44772 23 6 23H26ZM29 22C29 23.6569 27.6569 25 26 25H6C4.34315 25 3 23.6569 3 22V8C3 6.34315 4.34315 5 6 5H26C27.6569 5 29 6.34315 29 8V22Z" fill="#FFD48E"/>
<path fill-rule="evenodd" clip-rule="evenodd" d="M11 28C11 27.4477 11.4477 27 12 27H20C20.5523 27 21 27.4477 21 28C21 28.5523 20.5523 29 20 29H12C11.4477 29 11 28.5523 11 28Z" fill="#FFD48E"/>
<path fill-rule="evenodd" clip-rule="evenodd" d="M3 19C3 18.4477 3.44772 18 4 18H28C28.5523 18 29 18.4477 29 19C29 19.5523 28.5523 20 28 20H4C3.44772 20 3 19.5523 3 19Z" fill="#FFD48E"/>
<path fill-rule="evenodd" clip-rule="evenodd" d="M16 23C16.5523 23 17 23.4477 17 24V28C17 28.5523 16.5523 29 16 29C15.4477 29 15 28.5523 15 28V24C15 23.4477 15.4477 23 16 23Z" fill="#FFD48E"/>
<path fill-rule="evenodd" clip-rule="evenodd" d="M12 12C12.5523 12 13 12.4477 13 13V16C13 16.5523 12.5523 17 12 17C11.4477 17 11 16.5523 11 16V13C11 12.4477 11.4477 12 12 12Z" fill="#FFD48E"/>
<path fill-rule="evenodd" clip-rule="evenodd" d="M16 10C16.5523 10 17 10.4477 17 11V16C17 16.5523 16.5523 17 16 17C15.4477 17 15 16.5523 15 16V11C15 10.4477 15.4477 10 16 10Z" fill="#FFD48E"/>
<path fill-rule="evenodd" clip-rule="evenodd" d="M20 8C20.5523 8 21 8.44772 21 9V16C21 16.5523 20.5523 17 20 17C19.4477 17 19 16.5523 19 16V9C19 8.44772 19.4477 8 20 8Z" fill="#FFD48E"/>
</svg>
