<svg width="32" height="32" viewBox="0 0 32 32" fill="none" xmlns="http://www.w3.org/2000/svg">
<path fill-rule="evenodd" clip-rule="evenodd" d="M4 6C4 4.89543 4.89543 4 6 4H26C27.1046 4 28 4.89543 28 6V26C28 27.1046 27.1046 28 26 28H6C4.89543 28 4 27.1046 4 26V6ZM26 6H6V26H26V6Z" fill="#FF9D77"/>
<path fill-rule="evenodd" clip-rule="evenodd" d="M22 2C22.5523 2 23 2.44772 23 3V7C23 7.55228 22.5523 8 22 8C21.4477 8 21 7.55228 21 7V3C21 2.44772 21.4477 2 22 2Z" fill="#FF9D77"/>
<path fill-rule="evenodd" clip-rule="evenodd" d="M10 2C10.5523 2 11 2.44772 11 3V7C11 7.55228 10.5523 8 10 8C9.44772 8 9 7.55228 9 7V3C9 2.44772 9.44772 2 10 2Z" fill="#FF9D77"/>
<path fill-rule="evenodd" clip-rule="evenodd" d="M4 11C4 10.4477 4.44772 10 5 10H27C27.5523 10 28 10.4477 28 11C28 11.5523 27.5523 12 27 12H5C4.44772 12 4 11.5523 4 11Z" fill="#FF9D77"/>
<path fill-rule="evenodd" clip-rule="evenodd" d="M19.2333 16.0584C19.3039 16.0184 19.3838 15.9983 19.4647 16.0001C19.5453 16.0019 19.6241 16.0255 19.6928 16.0685L19.6933 16.0687L23.7799 18.6062C23.8467 18.6467 23.9021 18.7041 23.9406 18.7727C23.9795 18.842 24 18.9203 24 19C24 19.0797 23.9795 19.158 23.9406 19.2273C23.9021 19.2959 23.8467 19.3533 23.7799 19.3938L19.6933 21.9313L19.6928 21.9316C19.624 21.9745 19.5453 21.9981 19.4647 21.9999C19.3838 22.0017 19.3039 21.9816 19.2333 21.9416C19.1626 21.9016 19.1038 21.8432 19.0628 21.7724C19.0218 21.7017 19.0001 21.6211 19 21.5389V16.4611C19.0001 16.3789 19.0218 16.2983 19.0628 16.2276C19.1038 16.1568 19.1626 16.0984 19.2333 16.0584Z" fill="#FF9D77"/>
<path fill-rule="evenodd" clip-rule="evenodd" d="M12.7667 21.9416C12.6961 21.9816 12.6162 22.0017 12.5353 21.9999C12.4547 21.9981 12.3759 21.9745 12.3072 21.9315L12.3067 21.9313L8.22012 19.3938C8.1533 19.3533 8.09792 19.2959 8.05935 19.2273C8.02046 19.158 8 19.0797 8 19C8 18.9203 8.02046 18.842 8.05935 18.7727C8.09792 18.7041 8.1533 18.6467 8.22012 18.6062L12.3067 16.0687L12.3072 16.0684C12.376 16.0255 12.4547 16.0019 12.5353 16.0001C12.6162 15.9983 12.6961 16.0184 12.7667 16.0584C12.8374 16.0984 12.8962 16.1568 12.9372 16.2276C12.9782 16.2983 12.9999 16.3789 13 16.4611L13 21.5389C12.9999 21.6211 12.9782 21.7017 12.9372 21.7724C12.8962 21.8432 12.8374 21.9016 12.7667 21.9416Z" fill="#FF9D77"/>
<rect x="13" y="18" width="6" height="2" fill="#FF9D77"/>
</svg>
